<svg width="100" height="100" viewBox="0 0 100 100" fill="none" xmlns="http://www.w3.org/2000/svg">
<path d="M79.51 20.057C71.5869 12.3622 60.9543 8.09399 49.9099 8.17471C38.8655 8.25542 28.2964 12.6786 20.4866 20.4884C12.6768 28.2982 8.25365 38.8673 8.17294 49.9117C8.09222 60.9561 12.3605 71.5887 20.0553 79.5118C25.4278 84.8781 32.1516 88.6915 39.5146 90.5483C46.8776 92.4051 54.6057 92.2361 61.8805 90.0592C62.9191 89.7425 63.7899 89.0273 64.3024 88.0701C64.8149 87.113 64.9275 85.9917 64.6155 84.9518C64.3034 83.9118 63.5921 83.0378 62.6373 82.5209C61.6824 82.0041 60.5617 81.8865 59.5204 82.1938C56.3612 83.1403 53.0806 83.62 49.7826 83.6178C31.1266 83.6178 15.9493 68.4404 15.9493 49.7844C15.9493 31.1284 31.1266 15.951 49.7826 15.951C68.4386 15.951 83.616 31.1284 83.616 49.7844C83.6278 56.3792 81.7033 62.8324 78.0811 68.3435C77.499 69.2534 77.2989 70.3561 77.5242 71.4125C77.7495 72.469 78.382 73.3941 79.2847 73.9874C80.1874 74.5807 81.2875 74.7944 82.3467 74.5821C83.4058 74.3699 84.3387 73.7488 84.943 72.8535C90.2433 64.7693 92.5967 55.106 91.6071 45.4899C90.6176 35.8739 86.3455 26.8924 79.51 20.057Z" fill="#8898AB"/>
<path d="M70.3126 45.8426H54.0529V29.5829C54.0529 28.4939 53.6203 27.4496 52.8503 26.6795C52.0803 25.9095 51.0359 25.4769 49.9469 25.4769C48.8579 25.4769 47.8136 25.9095 47.0435 26.6795C46.2735 27.4496 45.8409 28.4939 45.8409 29.5829V45.8426H29.417C28.328 45.8426 27.2836 46.2752 26.5136 47.0453C25.7436 47.8153 25.311 48.8597 25.311 49.9486C25.311 51.0376 25.7436 52.082 26.5136 52.852C27.2836 53.622 28.328 54.0546 29.417 54.0546H45.8409V70.4786C45.8409 71.5676 46.2735 72.6119 47.0435 73.382C47.8136 74.152 48.8579 74.5846 49.9469 74.5846C51.0359 74.5846 52.0803 74.152 52.8503 73.382C53.6203 72.6119 54.0529 71.5676 54.0529 70.4786V54.0546H70.3126C71.4016 54.0546 72.446 53.622 73.216 52.852C73.986 52.082 74.4186 51.0376 74.4186 49.9486C74.4186 48.8597 73.986 47.8153 73.216 47.0453C72.446 46.2752 71.4016 45.8426 70.3126 45.8426Z" fill="#8898AB"/>
</svg>
