<svg width="100" height="100" viewBox="0 0 100 100" fill="none" xmlns="http://www.w3.org/2000/svg">
<path fill-rule="evenodd" clip-rule="evenodd" d="M20.8333 48.4083L14.8 45.3916C13.3917 44.6875 12.5 43.2458 12.5 41.6666V29.1666C12.5 26.8666 14.3625 25 16.6667 25H83.3333C85.6333 25 87.5 26.8666 87.5 29.1666V41.6666C87.5 43.2458 86.6083 44.6875 85.1958 45.3916L79.1667 48.4083V83.3333C79.1667 84.9125 78.2708 86.3583 76.8542 87.0625C69.7208 90.6125 60.3208 91.6667 50 91.6667C39.6792 91.6667 30.2792 90.6125 23.1417 87.0625C21.725 86.3583 20.8333 84.9125 20.8333 83.3333V48.4083ZM79.1667 39.0916V33.3333H20.8333V39.0916L26.8625 42.1083C28.275 42.8125 29.1667 44.2541 29.1667 45.8333V80.6083C34.9708 82.8083 42.1917 83.3333 50 83.3333C57.8042 83.3333 65.0292 82.8083 70.8333 80.6083V45.8333C70.8333 44.2541 71.725 42.8125 73.1333 42.1083L79.1667 39.0916ZM44.1042 58.3333L38.7208 52.9458C37.0917 51.3208 37.0917 48.6792 38.7208 47.0542C40.3458 45.4292 42.9875 45.4292 44.6125 47.0542L50 52.4417L55.3875 47.0542C57.0125 45.4292 59.6542 45.4292 61.2792 47.0542C62.9042 48.6792 62.9042 51.3208 61.2792 52.9458L55.8917 58.3333L61.2792 63.7208C62.9042 65.3458 62.9042 67.9875 61.2792 69.6125C59.6542 71.2375 57.0125 71.2375 55.3875 69.6125L50 64.225L44.6125 69.6125C42.9875 71.2375 40.3458 71.2375 38.7208 69.6125C37.0917 67.9875 37.0917 65.3458 38.7208 63.7208L44.1042 58.3333ZM37.5 16.6666H62.5C64.8 16.6666 66.6667 14.8 66.6667 12.5C66.6667 10.2 64.8 8.33331 62.5 8.33331H37.5C35.2 8.33331 33.3333 10.2 33.3333 12.5C33.3333 14.8 35.2 16.6666 37.5 16.6666Z" fill="#8898AB"/>
</svg>
