<svg width="100" height="100" viewBox="0 0 100 100" fill="none" xmlns="http://www.w3.org/2000/svg">
<path d="M95.9562 61.6282C95.5381 61.211 95.0102 60.9209 94.4339 60.7915C93.8576 60.662 93.2564 60.6986 92.7 60.8969C85.2229 63.5627 77.1429 64.0522 69.3988 62.3085C61.6546 60.5648 54.5641 56.6595 48.9512 51.0462C43.3383 45.433 39.4334 38.3423 37.6901 30.5981C35.9469 22.8538 36.4368 14.7738 39.1031 7.2969C39.3012 6.74042 39.3376 6.13917 39.2079 5.56287C39.0783 4.98657 38.7879 4.45882 38.3706 4.0408C37.9532 3.62278 37.4259 3.33162 36.8498 3.20106C36.2737 3.07051 35.6724 3.1059 35.1156 3.30316C28.3747 5.68358 22.2573 9.55354 17.2187 14.625C8.18631 23.6643 3.11358 35.9208 3.116 48.6994C3.11841 61.478 8.19577 73.7326 17.2316 82.7684C26.2675 91.8042 38.522 96.8816 51.3006 96.884C64.0793 96.8864 76.3357 91.8137 85.375 82.7813C90.447 77.7419 94.317 71.6234 96.6969 64.8813C96.8934 64.3245 96.9281 63.7234 96.797 63.1476C96.6659 62.5719 96.3744 62.045 95.9562 61.6282ZM80.9562 78.3625C76.6951 82.6117 71.5695 85.8942 65.9275 87.9872C60.2855 90.0801 54.2592 90.9346 48.2578 90.4925C42.2563 90.0504 36.4203 88.322 31.1459 85.4249C25.8715 82.5277 21.2823 78.5295 17.6898 73.7018C14.0974 68.8741 11.5858 63.3299 10.3256 57.4456C9.06541 51.5614 9.08615 45.4748 10.3864 39.5993C11.6866 33.7237 14.2359 28.1968 17.8612 23.3936C21.4865 18.5905 26.1029 14.6237 31.3969 11.7625C29.8296 19.5648 30.2072 27.633 32.4962 35.2548C34.7852 42.8766 38.9153 49.8178 44.5219 55.4657C50.1691 61.0732 57.1102 65.2039 64.7322 67.4929C72.3543 69.782 80.4227 70.159 88.225 68.5907C86.2929 72.1858 83.8439 75.4781 80.9562 78.3625Z" fill="#8898AB"/>
</svg>
