<svg width="100" height="100" viewBox="0 0 100 100" fill="none" xmlns="http://www.w3.org/2000/svg">
<g clip-path="url(#clip0_126_4)">
<path d="M50 15.2734C51.618 15.2734 52.9297 13.9617 52.9297 12.3438V2.92969C52.9297 1.31172 51.618 0 50 0C48.382 0 47.0703 1.31172 47.0703 2.92969V12.3438C47.0703 13.9617 48.382 15.2734 50 15.2734Z" fill="#EB5E28"/>
<path d="M50 84.7266C48.382 84.7266 47.0703 86.0383 47.0703 87.6562V97.0703C47.0703 98.6883 48.382 100 50 100C51.618 100 52.9297 98.6883 52.9297 97.0703V87.6562C52.9297 86.0383 51.618 84.7266 50 84.7266Z" fill="#EB5E28"/>
<path d="M97.0703 47.0703H87.6562C86.0383 47.0703 84.7266 48.382 84.7266 50C84.7266 51.618 86.0383 52.9297 87.6562 52.9297H97.0703C98.6883 52.9297 100 51.618 100 50C100 48.382 98.6883 47.0703 97.0703 47.0703Z" fill="#EB5E28"/>
<path d="M15.2734 50C15.2734 48.382 13.9617 47.0703 12.3438 47.0703H2.92969C1.31172 47.0703 0 48.382 0 50C0 51.618 1.31172 52.9297 2.92969 52.9297H12.3438C13.9617 52.9297 15.2734 51.618 15.2734 50Z" fill="#EB5E28"/>
<path d="M78.6992 25.4437L85.3549 18.7881C86.499 17.6439 86.499 15.7891 85.3549 14.6449C84.2109 13.5008 82.3558 13.5008 81.2117 14.6449L74.556 21.3006C73.4119 22.4447 73.4119 24.2996 74.556 25.4437C75.6998 26.5877 77.5551 26.5883 78.6992 25.4437Z" fill="#EB5E28"/>
<path d="M21.3008 74.5562L14.6451 81.2119C13.501 82.3561 13.501 84.2109 14.6451 85.3551C15.7888 86.499 17.6441 86.4994 18.7883 85.3551L25.4439 78.6994C26.5881 77.5553 26.5881 75.7004 25.4439 74.5562C24.2998 73.4119 22.4447 73.4119 21.3008 74.5562Z" fill="#EB5E28"/>
<path d="M78.6992 74.5562C77.5553 73.4121 75.7002 73.4121 74.556 74.5562C73.4119 75.7004 73.4119 77.5553 74.556 78.6994L81.2117 85.3551C82.3555 86.499 84.2107 86.4994 85.3549 85.3551C86.499 84.2109 86.499 82.356 85.3549 81.2119L78.6992 74.5562Z" fill="#EB5E28"/>
<path d="M21.3008 25.4437C22.4445 26.5877 24.2998 26.5881 25.4439 25.4437C26.5881 24.2996 26.5881 22.4447 25.4439 21.3006L18.7881 14.6449C17.6441 13.5008 15.7891 13.5008 14.6449 14.6449C13.5008 15.7891 13.5008 17.6439 14.6449 18.7881L21.3008 25.4437Z" fill="#EB5E28"/>
<path d="M50 25.1041C36.2725 25.1041 25.1041 36.2725 25.1041 50C25.1041 63.7276 36.2725 74.8959 50 74.8959C63.7276 74.8959 74.8959 63.7276 74.8959 50C74.8959 36.2725 63.7276 25.1041 50 25.1041ZM50 69.0365C39.5033 69.0365 30.9635 60.4967 30.9635 50C30.9635 39.5033 39.5033 30.9635 50 30.9635C60.4967 30.9635 69.0365 39.5033 69.0365 50C69.0365 60.4967 60.4967 69.0365 50 69.0365Z" fill="#EB5E28"/>
</g>
<defs>
<clipPath id="clip0_126_4">
<rect width="100" height="100" fill="white"/>
</clipPath>
</defs>
</svg>
