<svg width="513" height="642" viewBox="0 0 513 642" fill="none" xmlns="http://www.w3.org/2000/svg">
<path d="M256.379 0C328.176 0 386.379 58.203 386.379 130V130.005H456.496C487.227 130.005 512.379 155.146 512.378 185.889V586.112C512.378 616.843 487.227 641.995 456.495 641.995H56.2615C25.5307 641.995 0.378829 616.844 0.378662 586.112V185.889C0.378843 155.146 25.5307 130.005 56.2615 130.005H126.379V130C126.379 58.203 184.582 0 256.379 0Z" fill="#ACABB1"/>
<path d="M512.379 372.43V600.326C512.379 608.375 509.276 615.901 503.925 622.282C494.04 634.094 476.443 641.995 456.495 641.995H56.2615C36.4185 641.995 18.9047 634.18 8.98866 622.469C3.53466 616.041 0.378662 608.452 0.378662 600.325V372.43H512.379Z" fill="#898890"/>
<path d="M96.4507 437.823V475.88C96.4507 482.777 90.8077 488.419 83.9117 488.419H45.8547C38.9577 488.419 33.3157 482.776 33.3157 475.88V437.823C33.3157 430.926 38.9587 425.284 45.8547 425.284H83.9117C90.8077 425.284 96.4507 430.926 96.4507 437.823Z" fill="#2D2D30"/>
<path d="M191.164 437.823V475.88C191.164 482.777 185.521 488.419 178.625 488.419H140.568C133.671 488.419 128.029 482.776 128.029 475.88V437.823C128.029 430.926 133.672 425.284 140.568 425.284H178.625C185.522 425.284 191.164 430.926 191.164 437.823Z" fill="#2D2D30"/>
<path d="M286.923 437.823V475.88C286.923 482.777 281.28 488.419 274.384 488.419H236.327C229.43 488.419 223.788 482.776 223.788 475.88V437.823C223.788 430.926 229.431 425.284 236.327 425.284H274.384C281.28 425.284 286.923 430.926 286.923 437.823Z" fill="#2D2D30"/>
<path d="M383.214 437.824V475.881C383.214 482.778 377.571 488.42 370.675 488.42H332.618C325.721 488.42 320.079 482.777 320.079 475.881V437.824C320.079 430.927 325.722 425.285 332.618 425.285H370.675C377.571 425.285 383.214 430.927 383.214 437.824Z" fill="#2D2D30"/>
<path d="M479.505 437.824V475.881C479.505 482.778 473.862 488.42 466.966 488.42H428.909C422.012 488.42 416.37 482.777 416.37 475.881V437.824C416.37 430.927 422.013 425.285 428.909 425.285H466.966C473.862 425.285 479.505 430.927 479.505 437.824Z" fill="#2D2D30"/>
<path d="M96.4507 539.182V577.239C96.4507 584.136 90.8077 589.778 83.9117 589.778H45.8547C38.9577 589.778 33.3157 584.135 33.3157 577.239V539.182C33.3157 532.285 38.9587 526.643 45.8547 526.643H83.9117C90.8077 526.643 96.4507 532.285 96.4507 539.182Z" fill="#2D2D30"/>
<path d="M191.164 539.182V577.239C191.164 584.136 185.521 589.778 178.625 589.778H140.568C133.671 589.778 128.029 584.135 128.029 577.239V539.182C128.029 532.285 133.672 526.643 140.568 526.643H178.625C185.522 526.643 191.164 532.285 191.164 539.182Z" fill="#2D2D30"/>
<path d="M286.923 539.182V577.239C286.923 584.136 281.28 589.778 274.384 589.778H236.327C229.43 589.778 223.788 584.135 223.788 577.239V539.182C223.788 532.285 229.431 526.643 236.327 526.643H274.384C281.28 526.643 286.923 532.285 286.923 539.182Z" fill="#2D2D30"/>
<path d="M382.681 539.182V577.239C382.681 584.136 377.038 589.778 370.142 589.778H332.085C325.188 589.778 319.546 584.135 319.546 577.239V539.182C319.546 532.285 325.189 526.643 332.085 526.643H370.142C377.038 526.643 382.681 532.285 382.681 539.182Z" fill="#2D2D30"/>
<path d="M479.505 539.182V577.239C479.505 584.136 473.862 589.778 466.966 589.778H428.909C422.012 589.778 416.37 584.135 416.37 577.239V539.182C416.37 532.285 422.013 526.643 428.909 526.643H466.966C473.862 526.643 479.505 532.285 479.505 539.182Z" fill="#FF3501"/>
<path d="M96.4507 437.306V461.78C96.4507 468.391 90.8077 473.801 83.9117 473.801H45.8547C38.9577 473.801 33.3157 468.391 33.3157 461.78V437.306C33.3157 430.695 38.9587 425.285 45.8547 425.285H83.9117C90.8077 425.284 96.4507 430.694 96.4507 437.306Z" fill="#3E3D42"/>
<path d="M191.164 437.306V461.78C191.164 468.391 185.521 473.801 178.625 473.801H140.568C133.671 473.801 128.029 468.391 128.029 461.78V437.306C128.029 430.695 133.672 425.285 140.568 425.285H178.625C185.522 425.284 191.164 430.694 191.164 437.306Z" fill="#3E3D42"/>
<path d="M286.923 437.306V461.78C286.923 468.391 281.28 473.801 274.384 473.801H236.327C229.43 473.801 223.788 468.391 223.788 461.78V437.306C223.788 430.695 229.431 425.285 236.327 425.285H274.384C281.28 425.284 286.923 430.694 286.923 437.306Z" fill="#3E3D42"/>
<path d="M383.214 437.306V461.78C383.214 468.391 377.571 473.801 370.675 473.801H332.618C325.721 473.801 320.079 468.391 320.079 461.78V437.306C320.079 430.695 325.722 425.285 332.618 425.285H370.675C377.571 425.284 383.214 430.694 383.214 437.306Z" fill="#3E3D42"/>
<path d="M479.505 437.306V461.78C479.505 468.391 473.862 473.801 466.966 473.801H428.909C422.012 473.801 416.37 468.391 416.37 461.78V437.306C416.37 430.695 422.013 425.285 428.909 425.285H466.966C473.862 425.284 479.505 430.694 479.505 437.306Z" fill="#3E3D42"/>
<path d="M96.4507 538.837V563.652C96.4507 570.358 90.8077 575.846 83.9117 575.846H45.8547C38.9577 575.846 33.3157 570.359 33.3157 563.652V538.837C33.3157 532.131 38.9587 526.643 45.8547 526.643H83.9117C90.8077 526.643 96.4507 532.131 96.4507 538.837Z" fill="#3E3D42"/>
<path d="M191.164 538.837V563.652C191.164 570.358 185.521 575.846 178.625 575.846H140.568C133.671 575.846 128.029 570.359 128.029 563.652V538.837C128.029 532.131 133.672 526.643 140.568 526.643H178.625C185.522 526.643 191.164 532.131 191.164 538.837Z" fill="#3E3D42"/>
<path d="M286.923 538.837V563.652C286.923 570.358 281.28 575.846 274.384 575.846H236.327C229.43 575.846 223.788 570.359 223.788 563.652V538.837C223.788 532.131 229.431 526.643 236.327 526.643H274.384C281.28 526.643 286.923 532.131 286.923 538.837Z" fill="#3E3D42"/>
<path d="M382.681 538.837V563.652C382.681 570.358 377.038 575.846 370.142 575.846H332.085C325.188 575.846 319.546 570.359 319.546 563.652V538.837C319.546 532.131 325.189 526.643 332.085 526.643H370.142C377.038 526.643 382.681 532.131 382.681 538.837Z" fill="#3E3D42"/>
<path d="M479.505 538.837V563.652C479.505 570.358 473.862 575.846 466.966 575.846H428.909C422.012 575.846 416.37 570.359 416.37 563.652V538.837C416.37 532.131 422.013 526.643 428.909 526.643H466.966C473.862 526.643 479.505 532.131 479.505 538.837Z" fill="#FF5023"/>
<path d="M470.623 295.105V323.663C470.623 338.324 458.627 350.309 443.977 350.309H68.8436C54.1936 350.309 42.1976 338.324 42.1976 323.663V295.105C42.1976 280.455 54.1936 268.459 68.8436 268.459H443.978C458.627 268.459 470.623 280.455 470.623 295.105Z" fill="#C6C5CA"/>
<path d="M470.623 295.105V323.663C470.623 338.324 458.627 350.309 443.977 350.309L86.7506 350.309C72.1006 350.309 60.1046 338.324 60.1046 323.663V295.105C60.1046 280.455 72.1006 268.459 86.7506 268.459H443.978C458.627 268.459 470.623 280.455 470.623 295.105Z" fill="#E0E0E2"/>
<path d="M371.54 130C371.54 193.513 320.053 245 256.54 245C193.027 245 141.54 193.513 141.54 130C141.54 66.4873 193.027 15 256.54 15C320.053 15 371.54 66.4873 371.54 130Z" fill="#3E3D42"/>
<path d="M257.374 19.9385C260.755 19.9385 264.136 19.9385 267.62 19.9385C268.901 21.222 268.901 21.222 269.046 23.0172C269.039 23.7633 269.033 24.5094 269.026 25.2781C269.022 26.0847 269.018 26.8913 269.013 27.7223C268.997 28.9917 268.997 28.9917 268.981 30.2868C268.974 31.1467 268.969 32.0065 268.963 32.8664C268.948 34.9748 268.927 37.0829 268.901 39.1912C269.506 39.2335 269.506 39.2335 270.124 39.2766C273.744 39.5764 276.929 40.1934 280.347 41.3973C284.599 42.8178 288.779 43.7586 293.235 44.3253C293.378 43.9125 293.522 43.4997 293.67 43.0743C294.825 40.3995 296.306 37.9591 297.797 35.461C298.247 34.7022 298.247 34.7022 298.705 33.928C299.441 32.6863 300.179 31.4459 300.919 30.2066C304.125 30.5515 306.617 31.6314 309.404 33.1747C310.03 33.5147 310.03 33.5147 310.669 33.8616C314.212 35.8211 317.537 38.0346 320.771 40.4747C320.408 42.7575 319.831 44.4313 318.65 46.411C317.504 48.4132 316.422 50.4157 315.448 52.5077C315.239 52.9544 315.03 53.4011 314.815 53.8614C314.256 55.5765 314.059 56.6518 314.367 58.444C315.822 59.985 315.822 59.985 317.729 61.3319C320.201 63.1928 322.109 64.956 323.973 67.4286C325.027 68.5113 326.094 69.5814 327.174 70.6374C327.808 71.3918 327.808 71.3918 328.455 72.1615C329.642 73.3519 329.642 73.3519 331.137 73.2044C333.171 72.4797 335.109 71.6141 337.073 70.7176C338.84 69.9338 340.619 69.2068 342.423 68.5115C342.995 68.289 343.567 68.0665 344.157 67.8372C345.911 67.3859 346.668 67.3137 348.307 68.0703C352.426 72.4872 356.769 80.075 357.912 86.0396C353.307 89.188 348.584 92.119 343.824 95.0242C344.189 99.9067 345.361 104.337 346.746 109.023C347.163 110.443 347.578 111.864 347.989 113.287C348.173 113.909 348.356 114.531 348.546 115.171C348.947 116.844 348.947 116.844 348.947 119.411C355.075 119.411 361.204 119.411 367.518 119.411C367.518 127.247 367.518 135.083 367.518 143.156C361.601 143.368 355.684 143.58 349.587 143.798C347.954 147.891 346.455 151.773 345.305 155.991C345.168 156.488 345.031 156.985 344.889 157.498C343.937 161.064 343.362 164.488 343.184 168.185C343.791 168.304 344.399 168.423 345.025 168.546C347.928 169.362 350.115 171.056 352.514 172.835C354.054 173.949 355.631 174.929 357.272 175.886C356.943 179.369 355.686 181.761 353.95 184.71C353.692 185.158 353.434 185.607 353.168 186.069C352.409 187.385 351.64 188.696 350.868 190.004C350.46 190.696 350.053 191.388 349.633 192.1C348.771 193.546 347.904 194.987 347.026 196.422C344.471 196.05 342.692 195.253 340.502 193.895C339.952 193.558 339.401 193.222 338.834 192.875C337.42 191.93 337.42 191.93 336.14 190.646C334.948 190.074 334.948 190.074 333.618 189.603C332.956 189.353 332.956 189.353 332.28 189.097C330.929 188.63 330.929 188.63 329.096 188.721C328.192 189.706 328.192 189.706 327.375 191.007C325.631 193.464 323.733 195.306 321.429 197.229C319.698 198.72 318.14 200.354 316.573 202.015C315.648 202.84 315.648 202.84 314.367 202.84C314.72 207.785 316.607 211.156 319.426 215.09C320.528 216.664 321.362 218.057 321.861 219.921C321.133 222.395 319.112 223.299 317.009 224.539C316.592 224.8 316.175 225.061 315.745 225.33C312.66 227.226 312.66 227.226 311.165 227.226C311.165 227.65 311.165 228.074 311.165 228.51C310.703 228.682 310.241 228.854 309.764 229.031C307.943 229.74 307.943 229.74 306.362 230.836C304.522 231.851 303.629 231.982 301.56 231.719C300.564 230.726 300.564 230.726 299.719 229.312C299.394 228.793 299.07 228.275 298.736 227.74C298.012 226.463 297.33 225.161 296.679 223.845C296.143 222.799 296.143 222.799 295.596 221.731C295.282 221.069 294.967 220.406 294.643 219.723C293.077 218.076 292.807 217.982 290.651 217.883C287.031 218.109 283.744 219.282 280.347 220.488C279.134 220.915 277.918 221.337 276.7 221.751C275.905 222.034 275.905 222.034 275.094 222.322C273.383 222.734 273.383 222.734 268.901 222.734C268.901 229.087 268.901 235.441 268.901 241.987C265.097 241.987 261.293 241.987 257.374 241.987C257.374 229.915 257.374 217.844 257.374 205.407C254.627 205.407 251.88 205.407 249.049 205.407C249.049 203.077 249.049 200.747 249.049 198.347C248.204 198.559 247.359 198.771 246.488 198.989C246.276 200.895 246.065 202.801 245.847 204.765C243.311 204.765 240.776 204.765 238.163 204.765C238.163 202.859 238.163 200.953 238.163 198.989C237.318 198.989 236.472 198.989 235.601 198.989C235.601 200.895 235.601 202.801 235.601 204.765C232.854 204.765 230.107 204.765 227.277 204.765C226.984 196.314 227.872 188.923 231.119 181.02C229.218 181.286 227.539 181.546 225.776 182.323C223.853 183.026 222.391 183.075 220.353 183.025C219.728 183.014 219.103 183.002 218.459 182.99C217.988 182.975 217.516 182.96 217.031 182.945C217.031 182.521 217.031 182.098 217.031 181.662C216.582 181.556 216.133 181.45 215.67 181.341C212.921 179.903 211.401 177.996 209.987 175.244C209.639 173.532 209.639 173.532 209.426 171.674C209.015 168.093 207.815 165.693 206.024 162.649C204.176 159.4 202.818 156.822 203.56 153.026C204.388 151.119 205.525 149.709 206.825 148.09C209.456 144.734 209.92 142.427 209.654 138.207C209.248 135.42 208.636 132.74 207.845 130.038C207.425 128.396 207.425 128.396 207.425 125.829C207.002 125.829 206.58 125.829 206.144 125.829C205.51 122.652 205.51 122.652 204.864 119.411C204.441 119.411 204.018 119.411 203.583 119.411C201.794 114.853 201.452 110.415 201.422 105.573C201.413 105.012 201.404 104.452 201.395 103.874C201.423 99.7852 202.229 96.3024 203.583 92.4571C203.785 91.8615 203.987 91.2659 204.196 90.6522C208.275 80.1994 214.987 72.4886 224.075 66.1451C224.601 65.7753 225.128 65.4055 225.671 65.0245C233.194 60.1376 242.644 56.8777 251.611 57.0802C252.355 57.0889 252.355 57.0889 253.114 57.0978C254.321 57.1127 255.527 57.1357 256.734 57.1604C256.823 71.0343 256.891 84.9082 256.933 98.7823C256.953 105.225 256.979 111.667 257.023 118.109C257.062 123.725 257.087 129.341 257.095 134.957C257.1 137.93 257.112 140.903 257.14 143.875C257.166 146.676 257.174 149.476 257.168 152.277C257.169 153.303 257.177 154.328 257.192 155.353C257.274 161.34 256.861 165.429 252.891 170.11C250.841 174 250.29 177.994 249.69 182.303C251.439 181.292 252.857 180.412 254.292 178.974C254.675 178.59 255.058 178.206 255.453 177.811C255.876 177.811 256.298 177.811 256.734 177.811C256.734 173.787 256.734 169.763 256.734 165.618C260.364 167.437 262.274 170.18 263.978 173.84C264.626 176.85 264.851 179.876 265.058 182.945C262.497 182.303 262.497 182.303 258.014 179.095C257.803 187.566 257.592 196.037 257.374 204.765C259.91 204.765 262.446 204.765 265.058 204.765C265.058 202.435 265.058 200.106 265.058 197.706C266.115 197.706 267.172 197.706 268.26 197.706C268.26 200.035 268.26 202.365 268.26 204.765C271.008 204.765 273.755 204.765 276.585 204.765C276.585 202.859 276.585 200.953 276.585 198.989C277.219 198.989 277.853 198.989 278.506 198.989C278.506 200.895 278.506 202.801 278.506 204.765C281.253 204.765 284.001 204.765 286.831 204.765C286.292 193.961 286.292 193.961 283.504 183.594C282.989 182.303 282.989 182.303 282.989 181.02C286.671 181.581 286.671 181.581 288.112 182.303C289.563 182.416 291.019 182.475 292.474 182.504C293.258 182.528 294.041 182.552 294.848 182.577C297.439 182.259 298.383 181.466 300.279 179.736C300.702 179.736 301.124 179.736 301.56 179.736C301.731 179.299 301.903 178.863 302.08 178.413C302.604 177.114 303.167 175.83 303.761 174.562C304.667 172.493 305.152 170.428 305.642 168.225C306.232 165.676 306.865 163.838 308.404 161.727C310.167 159.149 310.338 156.911 310.21 153.825C309.695 151.157 308.425 149.7 306.683 147.648C306.683 147.225 306.683 146.801 306.683 146.365C306.26 146.365 305.837 146.365 305.402 146.365C303.439 140.463 304.372 132.774 306.683 127.112C306.891 126.588 307.099 126.065 307.313 125.525C307.719 124.512 308.135 123.503 308.564 122.499C308.788 121.904 309.013 121.308 309.244 120.695C309.408 120.26 309.573 119.825 309.742 119.377C311.334 114.716 311.474 110.309 311.445 105.413C311.458 104.654 311.471 103.896 311.484 103.115C311.478 91.4654 306.37 81.4601 298.368 73.1718C294.5 69.529 290.11 66.8895 285.55 64.2198C284.494 63.5844 283.437 62.9491 282.349 62.2945C273.681 58.9079 273.681 58.9079 257.374 56.5187C257.374 44.4472 257.374 32.3757 257.374 19.9385Z" fill="#ACABB1"/>
<path d="M233.017 149.338C235.883 150.631 238.859 151.376 241.885 152.201C244.796 153.03 247.512 153.809 249.69 155.991C250.09 157.475 250.09 157.475 249.69 159.2C246.157 162.222 241.601 163.684 237.282 165.176C236.657 165.407 236.031 165.637 235.386 165.875C231.436 167.256 227.635 168.232 223.434 167.543C220.319 165.235 217.76 161.785 217.031 157.916C216.784 155.32 216.702 152.806 217.031 150.215C221.508 145.001 227.652 146.661 233.017 149.338Z" fill="#3E3D42"/>
<path d="M293.115 147.849C294.886 148.788 295.87 149.319 297.077 150.857C297.863 155.136 296.754 159.103 295.156 163.051C294.733 163.051 294.311 163.051 293.875 163.051C293.703 163.448 293.532 163.845 293.355 164.254C292.594 165.618 292.594 165.618 290.673 166.901C289.055 166.958 287.557 166.937 285.951 166.821C285.494 166.788 285.037 166.756 284.567 166.722C277.508 166.109 269.869 163.934 264.418 159.2C264.01 157.613 264.01 157.613 264.418 155.991C266.907 153.234 270.092 152.484 273.543 151.499C277.262 150.417 280.761 149.224 284.251 147.528C287.249 146.325 290.142 146.675 293.115 147.849Z" fill="#ACABB1"/>
<path d="M256.734 165.618C260.364 167.161 262.35 170.344 263.978 173.84C264.626 176.85 264.851 179.876 265.058 182.945C261.821 182.307 259.909 180.313 257.584 178.054C256.288 175.728 256.529 173.526 256.614 170.912C256.622 170.403 256.631 169.895 256.64 169.37C256.662 168.119 256.697 166.868 256.734 165.618Z" fill="#ACABB1"/>
<path d="M256.093 164.334C256.305 164.334 256.516 164.334 256.734 164.334C257.57 176.333 257.57 176.333 255.661 179.706C253.643 181.466 252.395 182.303 249.69 182.303C249.258 175.677 251.813 170.382 255.453 164.976C255.664 164.764 255.876 164.552 256.093 164.334Z" fill="#3E3D42"/>
<path d="M257.06 15C259.858 15 262.631 15.1015 265.379 15.2979C205.749 19.5605 158.698 69.2849 158.698 130C158.698 190.715 205.749 240.438 265.379 244.701C262.631 244.898 259.858 245 257.06 245C193.548 245 142.06 193.513 142.06 130C142.06 66.4874 193.548 15 257.06 15Z" fill="#2D2D30"/>
</svg>
